<svg width="879" height="240" viewBox="0 0 879 240" fill="none" xmlns="http://www.w3.org/2000/svg">
<path d="M592.2 183.8C592.2 184.467 591.867 185.8 591.2 187.8C590.533 189.8 589.467 191.867 588 194C586.533 196.133 584.667 198 582.4 199.6C580.267 201.2 577.667 202 574.6 202C571 202 567.4 200.8 563.8 198.4C560.333 196 556.867 192.733 553.4 188.6C549.933 184.467 546.4 179.6 542.8 174C539.333 168.267 535.8 162.067 532.2 155.4C531.667 162.467 531.133 169.4 530.6 176.2C530.067 183 529.533 189.6 529 196C528.867 197.6 528.533 198.667 528 199.2C527.467 199.733 526.333 200 524.6 200H517.4C513.267 200 509.867 199.6 507.2 198.8C504.533 197.867 502.467 196.6 501 195C499.533 193.4 498.467 191.4 497.8 189C497.267 186.467 497 183.6 497 180.4C497 178.8 497.067 177.133 497.2 175.4C497.333 173.667 497.533 171.2 497.8 168C498.067 164.8 498.4 160.6 498.8 155.4C499.333 150.2 499.933 143.333 500.6 134.8C501.267 126.267 502 115.8 502.8 103.4C503.733 90.8667 504.733 75.6667 505.8 57.8C505.933 54.8667 506.267 53.1333 506.8 52.6C507.2 52.2 508.267 52 510 52H517.8C521.933 52 525.333 52.4667 528 53.4C530.667 54.3333 532.8 55.6 534.4 57.2C536 58.8 537.067 60.6667 537.6 62.8C538.267 64.9333 538.6 67.1333 538.6 69.4C538.6 70.7333 538.467 73 538.2 76.2C538.067 79.2667 537.867 83.0667 537.6 87.6C537.333 92 536.933 97 536.4 102.6C536 108.2 535.6 114.067 535.2 120.2L567.2 91C568.4 89.9333 569.467 89.2 570.4 88.8C571.467 88.4 572.267 88.2 572.8 88.2C574.267 88.2 575.867 89.1333 577.6 91C579.333 92.8667 580.933 95.0667 582.4 97.6C584 100 585.267 102.533 586.2 105.2C587.267 107.733 587.8 109.8 587.8 111.4C587.8 115.267 584.667 119.333 578.4 123.6C572.267 127.867 562.933 132.667 550.4 138C556 144.267 561.333 150 566.4 155.2C571.467 160.4 575.867 165 579.6 169C583.467 173 586.533 176.267 588.8 178.8C591.067 181.333 592.2 183 592.2 183.8ZM733.813 93.4C732.746 96.6 731.346 100.8 729.613 106C728.013 111.067 726.213 116.667 724.213 122.8C722.213 128.933 720.146 135.467 718.013 142.4C715.879 149.2 713.679 155.867 711.413 162.4C709.279 168.933 707.146 175.2 705.013 181.2C702.879 187.067 700.946 192.2 699.213 196.6C698.679 197.667 697.546 198.533 695.813 199.2C694.213 199.733 691.613 200 688.013 200C685.746 200 683.413 199.867 681.013 199.6C678.613 199.333 676.346 198.8 674.213 198C672.213 197.2 670.413 196.133 668.813 194.8C667.346 193.467 666.213 191.8 665.413 189.8C663.413 183 661.479 175.467 659.613 167.2C657.879 158.8 656.146 150.267 654.413 141.6C652.679 132.933 650.946 124.467 649.213 116.2C647.613 107.8 645.946 100.2 644.213 93.4C644.213 95.2667 644.146 98.4667 644.013 103C643.879 107.533 643.746 112.8 643.613 118.8C643.479 124.8 643.279 131.267 643.013 138.2C642.879 145.133 642.746 151.933 642.613 158.6C642.479 165.133 642.346 171.267 642.213 177C642.079 182.6 642.013 187.2 642.013 190.8C642.013 194.8 641.746 197.333 641.213 198.4C640.813 199.467 640.013 200 638.813 200H627.813C620.213 200 614.813 198.533 611.613 195.6C608.546 192.533 607.013 188.067 607.013 182.2C607.013 180.6 607.079 177.933 607.213 174.2C607.479 170.333 607.813 165.8 608.213 160.6C608.613 155.4 609.013 149.733 609.413 143.6C609.946 137.333 610.479 131 611.013 124.6C611.679 115.933 612.213 108.733 612.613 103C613.146 97.1333 613.546 92.2667 613.813 88.4C614.079 84.5333 614.279 81.4 614.413 79C614.679 76.6 614.813 74.4667 614.813 72.6C614.946 70.7333 615.013 69 615.013 67.4C615.146 65.6667 615.213 63.5333 615.213 61C615.213 59.9333 615.613 59.2 616.413 58.8C617.213 58.2667 617.946 58 618.613 58H646.613C651.813 58 656.079 58.8667 659.413 60.6C662.746 62.2 665.479 64.7333 667.613 68.2C669.746 71.6667 671.479 76.2 672.813 81.8C674.146 87.2667 675.346 93.8 676.413 101.4C677.613 109 678.879 117.8 680.213 127.8C681.679 137.667 683.546 148.8 685.813 161.2C687.946 152.933 689.746 146.067 691.213 140.6C692.679 135.133 693.879 130.6 694.813 127C695.879 123.267 696.746 120.2 697.413 117.8C698.079 115.4 698.679 113.2 699.213 111.2C699.746 109.067 700.346 106.8 701.013 104.4C701.679 102 702.479 99 703.413 95.4C704.346 91.8 705.479 87.3333 706.813 82C708.279 76.5333 710.079 69.6667 712.213 61.4C712.479 60.6 712.946 59.8667 713.613 59.2C714.279 58.4 715.479 58 717.213 58H748.413C752.679 58 756.079 58.4667 758.613 59.4C761.279 60.2 763.346 61.4 764.813 63C766.279 64.6 767.279 66.6 767.813 69C768.346 71.2667 768.613 73.9333 768.613 77C768.613 80.0667 768.413 85.0667 768.013 92C767.746 98.8 767.279 106.533 766.613 115.2C766.079 123.733 765.479 132.6 764.813 141.8C764.279 151 763.679 159.533 763.013 167.4C762.479 175.267 762.013 181.933 761.613 187.4C761.213 192.867 760.946 196.067 760.813 197C760.679 198.067 760.413 198.867 760.013 199.4C759.613 199.8 758.813 200 757.613 200H746.613C739.013 200 733.613 198.533 730.413 195.6C727.346 192.533 725.813 188.6 725.813 183.8C725.813 182.333 725.946 179.667 726.213 175.8C726.613 171.933 727.079 167.4 727.613 162.2C728.146 157 728.746 151.333 729.413 145.2C730.079 138.933 730.679 132.733 731.213 126.6C731.746 120.467 732.213 114.533 732.613 108.8C733.146 102.933 733.546 97.8 733.813 93.4ZM809.453 200C801.986 200 796.653 198.533 793.453 195.6C790.253 192.667 788.653 188.467 788.653 183C788.653 180.333 788.853 175.8 789.253 169.4C789.653 162.867 790.186 155.467 790.853 147.2C791.52 138.933 792.186 130.2 792.853 121C793.52 111.8 794.186 103.133 794.853 95C795.52 86.8667 796.053 79.7333 796.453 73.6C796.853 67.4667 797.053 63.2667 797.053 61C797.053 59 798.12 58 800.253 58H870.653C871.453 58 872.186 58.2 872.853 58.6C873.52 59 873.853 59.7333 873.853 60.8L873.053 72.6C872.786 76.6 871.653 79.8667 869.653 82.4C867.786 84.8 863.853 86 857.853 86H830.253L828.253 114.2H856.653C857.453 114.2 858.186 114.4 858.853 114.8C859.52 115.2 859.853 115.933 859.853 117L859.053 128.8C858.786 132.8 857.653 136.067 855.653 138.6C853.786 141 849.853 142.2 843.853 142.2H826.453L824.253 172H868.253C869.053 172 869.786 172.267 870.453 172.8C871.12 173.2 871.453 173.867 871.453 174.8L870.653 186.6C870.386 190.6 869.253 193.867 867.253 196.4C865.386 198.8 861.453 200 855.453 200H809.453Z" fill="#E63946"/>
<path fill-rule="evenodd" clip-rule="evenodd" d="M368.982 133.125H372.018C377.369 110.053 396.239 93 418.7 93H442.8C455.583 93 467.843 98.6366 476.883 108.67C485.922 118.703 491 132.311 491 146.5C491 160.689 485.922 174.297 476.883 184.33C467.843 194.363 455.583 200 442.8 200H418.7C408.013 199.998 397.63 196.057 389.18 188.794C380.731 181.531 374.694 171.359 372.018 159.875H368.982C366.306 171.359 360.269 181.531 351.82 188.794C343.37 196.057 332.987 199.998 322.3 200H298.2C285.417 200 273.157 194.363 264.117 184.33C255.078 174.297 250 160.689 250 146.5C250 132.311 255.078 118.703 264.117 108.67C273.157 98.6366 285.417 93 298.2 93H322.3C332.987 93.0016 343.37 96.9433 351.82 104.206C360.269 111.469 366.306 121.641 368.982 133.125ZM343.388 133.54C341.302 129.36 338.247 125.877 334.538 123.452C330.83 121.027 326.604 119.749 322.3 119.75H298.2C291.808 119.75 285.678 122.568 281.159 127.585C276.639 132.601 274.1 139.405 274.1 146.5C274.1 153.595 276.639 160.399 281.159 165.415C285.678 170.432 291.808 173.25 298.2 173.25H322.3C326.604 173.251 330.83 171.973 334.538 169.548C338.247 167.123 341.302 163.64 343.388 159.46C340.793 158.726 338.492 157.053 336.849 154.707C335.206 152.36 334.315 149.472 334.315 146.5C334.315 143.528 335.206 140.64 336.849 138.293C338.492 135.947 340.793 134.274 343.388 133.54ZM394.6 159.474C396.687 163.65 399.743 167.131 403.451 169.553C407.16 171.976 411.385 173.252 415.688 173.25H439.788C446.179 173.25 452.309 170.432 456.829 165.415C461.348 160.399 463.887 153.595 463.887 146.5C463.887 139.405 461.348 132.601 456.829 127.585C452.309 122.568 446.179 119.75 439.788 119.75H415.688C411.383 119.749 407.158 121.027 403.449 123.452C399.741 125.877 396.685 129.36 394.6 133.54C397.195 134.274 399.495 135.947 401.138 138.293C402.781 140.64 403.673 143.528 403.673 146.5C403.673 149.472 402.781 152.36 401.138 154.707C399.495 157.053 397.195 158.726 394.6 159.46V159.474Z" fill="#E63946"/>
<path d="M31 200C23.5333 200 18.2 198.533 15 195.6C11.8 192.667 10.2 188.467 10.2 183C10.2 180.333 10.4 175.8 10.8 169.4C11.2 162.867 11.7333 155.467 12.4 147.2C13.0667 138.933 13.7333 130.2 14.4 121C15.0667 111.8 15.7333 103.133 16.4 95C17.0667 86.8667 17.6 79.7333 18 73.6C18.4 67.4667 18.6 63.2667 18.6 61C18.6 59 19.6667 58 21.8 58H32.8C40.2667 58 45.4 59.4667 48.2 62.4C51.1333 65.2 52.6 69.4 52.6 75C52.6 75.6667 52.5333 76.2667 52.4 76.8C52.4 77.3333 52.4 77.9333 52.4 78.6L45.8 172H81.8C82.6 172 83.3333 172.267 84 172.8C84.6667 173.2 85 173.867 85 174.8L84.2 186.6C83.9333 190.6 82.8 193.867 80.8 196.4C78.9333 198.8 75 200 69 200H31ZM196.455 178.6C198.188 168.867 199.655 160.4 200.855 153.2C202.188 145.867 203.255 139.533 204.055 134.2C204.988 128.867 205.721 124.267 206.255 120.4C206.921 116.533 207.455 113.133 207.855 110.2C208.388 107.133 208.788 104.467 209.055 102.2C209.455 99.8 209.855 97.3333 210.255 94.8C210.521 93.3333 211.188 92.2 212.255 91.4C213.455 90.6 215.655 90.2 218.855 90.2C220.588 90.2 222.988 90.3333 226.055 90.6C229.255 90.7333 232.388 91.2 235.455 92C238.521 92.8 241.121 94.0667 243.255 95.8C245.521 97.4 246.655 99.6667 246.655 102.6C246.655 104.733 246.055 107.933 244.855 112.2C243.655 116.333 242.121 121.133 240.255 126.6C238.388 132.067 236.255 137.933 233.855 144.2C231.455 150.333 228.988 156.467 226.455 162.6C224.055 168.6 221.721 174.333 219.455 179.8C217.188 185.267 215.255 190 213.655 194C212.588 196.4 211.521 198 210.455 198.8C209.521 199.6 207.788 200 205.255 200H193.455C189.721 200 186.655 199.533 184.255 198.6C181.855 197.667 179.921 196.4 178.455 194.8C176.988 193.2 175.855 191.4 175.055 189.4C174.255 187.267 173.655 185 173.255 182.6C171.921 175.8 170.521 166.667 169.055 155.2C167.588 143.733 166.255 130.2 165.055 114.6C164.388 117.533 163.588 121.467 162.655 126.4C161.855 131.333 160.921 136.667 159.855 142.4C158.921 148.133 157.921 154 156.855 160C155.788 166 154.788 171.6 153.855 176.8C152.921 181.867 152.055 186.267 151.255 190C150.455 193.6 149.788 195.933 149.255 197C148.588 198.333 147.721 199.2 146.655 199.6C145.721 199.867 144.321 200 142.455 200H128.455C124.988 200 121.988 199.533 119.455 198.6C117.055 197.533 114.921 196.2 113.055 194.6C111.321 193 109.855 191.2 108.655 189.2C107.588 187.067 106.788 184.867 106.255 182.6C98.9214 154.067 93.388 132.533 89.6547 118C86.0547 103.467 84.2547 95.6667 84.2547 94.6C84.2547 93.4 84.8547 92.3333 86.0547 91.4C87.2547 90.4667 88.788 90 90.6547 90C96.388 90 101.321 90.2667 105.455 90.8C109.588 91.2 112.988 92 115.655 93.2C118.455 94.4 120.588 96.0667 122.055 98.2C123.521 100.333 124.455 103.133 124.855 106.6C124.988 108.467 125.255 112.267 125.655 118C126.055 123.733 126.455 130.267 126.855 137.6C127.388 144.8 127.855 152.133 128.255 159.6C128.788 167.067 129.255 173.4 129.655 178.6C131.255 170.333 132.521 163.733 133.455 158.8C134.521 153.867 135.388 149.733 136.055 146.4C136.721 143.067 137.255 140.133 137.655 137.6C138.188 135.067 138.788 132.067 139.455 128.6C140.121 125.133 140.855 120.8 141.655 115.6C142.588 110.4 143.855 103.467 145.455 94.8C145.988 91.6 149.521 90 156.055 90C160.188 90 164.055 90.1333 167.655 90.4C171.255 90.6667 174.455 91.3333 177.255 92.4C180.055 93.3333 182.455 94.8 184.455 96.8C186.455 98.6667 187.855 101.267 188.655 104.6C188.921 105.533 189.121 106.467 189.255 107.4C189.521 108.333 189.788 109.667 190.055 111.4C190.321 113.133 190.588 115.533 190.855 118.6C191.255 121.667 191.655 125.8 192.055 131C192.588 136.2 193.188 142.667 193.855 150.4C194.521 158.133 195.388 167.533 196.455 178.6Z" fill="#E63946"/>
</svg>
